<svg xmlns="http://www.w3.org/2000/svg" width="103" height="50" viewBox="0 0 103 50" fill="none"><path d="M0 8.95405V40.3372L6.52116 45.6356V34.6311L2.03786 28.9251L6.52116 25.257V13.4373L13.0423 6.91618V25.257L8.55903 22.8115L14.6726 45.6356L22.8241 49.7113L16.7105 28.9251L19.9711 25.257V0.39502L0 8.95405Z" fill="#793CFB"></path><path d="M0 8.95419L19.1559 0.802734L0 19.9587V8.95419Z" fill="#8D58F7"></path><path d="M40.0072 22.2095L37.1509 17.0251H36.3488V22.2095H33.0035V8.4759H38.6182C39.7007 8.4759 40.6202 8.66501 41.3766 9.04324C42.1461 9.42147 42.72 9.94316 43.0982 10.6083C43.4765 11.2604 43.6656 11.9908 43.6656 12.7994C43.6656 13.7124 43.4047 14.5275 42.883 15.2449C42.3744 15.9622 41.6179 16.4708 40.6137 16.7708L43.7829 22.2095H40.0072ZM36.3488 14.658H38.4226C39.0355 14.658 39.492 14.508 39.792 14.208C40.105 13.908 40.2615 13.4842 40.2615 12.9364C40.2615 12.4147 40.105 12.0039 39.792 11.7039C39.492 11.4039 39.0355 11.2539 38.4226 11.2539H36.3488V14.658ZM49.1109 11.1561V13.9341H53.591V16.5165H49.1109V19.5293H54.1779V22.2095H45.7656V8.4759H54.1779V11.1561H49.1109ZM64.899 19.7836H59.7734L58.9517 22.2095H55.4498L60.4189 8.4759H64.2925L69.2616 22.2095H65.7207L64.899 19.7836ZM64.0382 17.2012L62.3362 12.1734L60.6537 17.2012H64.0382ZM74.1194 19.6271H78.5016V22.2095H70.774V8.4759H74.1194V19.6271Z" fill="#1A1A1A"></path><path d="M44.8981 25.5941V39.3276H41.5527V33.6738H36.3488V39.3276H33.0035V25.5941H36.3488V30.974H41.5527V25.5941H44.8981ZM53.8082 39.4646C52.517 39.4646 51.3301 39.1646 50.2476 38.5647C49.1781 37.9647 48.3239 37.13 47.6848 36.0605C47.0588 34.978 46.7457 33.7651 46.7457 32.4217C46.7457 31.0784 47.0588 29.8719 47.6848 28.8025C48.3239 27.733 49.1781 26.8983 50.2476 26.2984C51.3301 25.6984 52.517 25.3984 53.8082 25.3984C55.0994 25.3984 56.2797 25.6984 57.3492 26.2984C58.4317 26.8983 59.2794 27.733 59.8924 28.8025C60.5184 29.8719 60.8315 31.0784 60.8315 32.4217C60.8315 33.7651 60.5184 34.978 59.8924 36.0605C59.2664 37.13 58.4186 37.9647 57.3492 38.5647C56.2797 39.1646 55.0994 39.4646 53.8082 39.4646ZM53.8082 36.4127C54.9037 36.4127 55.7776 36.0475 56.4297 35.3171C57.0948 34.5868 57.4274 33.6216 57.4274 32.4217C57.4274 31.2088 57.0948 30.2437 56.4297 29.5263C55.7776 28.796 54.9037 28.4308 53.8082 28.4308C52.6996 28.4308 51.8127 28.7894 51.1475 29.5068C50.4954 30.2241 50.1694 31.1957 50.1694 32.4217C50.1694 33.6347 50.4954 34.6063 51.1475 35.3367C51.8127 36.054 52.6996 36.4127 53.8082 36.4127ZM78.2456 25.5941V39.3276H74.9002V31.0914L71.8287 39.3276H69.129L66.038 31.0718V39.3276H62.6926V25.5941H66.6444L70.4984 35.1019L74.3133 25.5941H78.2456ZM83.9966 28.2743V31.0523H88.4767V33.6347H83.9966V36.6474H89.0636V39.3276H80.6513V25.5941H89.0636V28.2743H83.9966ZM96.2045 39.4646C95.2003 39.4646 94.3004 39.3016 93.5048 38.9755C92.7092 38.6494 92.0701 38.1669 91.5876 37.5278C91.118 36.8887 90.8702 36.1192 90.8442 35.2193H94.4047C94.4569 35.728 94.6329 36.1192 94.9329 36.3931C95.2329 36.654 95.6242 36.7844 96.1067 36.7844C96.6023 36.7844 96.9936 36.6735 97.2805 36.4518C97.5675 36.217 97.7109 35.8975 97.7109 35.4932C97.7109 35.1541 97.5936 34.8737 97.3588 34.652C97.1371 34.4302 96.8567 34.2476 96.5176 34.1042C96.1915 33.9607 95.722 33.7977 95.109 33.6151C94.2221 33.3412 93.4983 33.0673 92.9374 32.7934C92.3766 32.5195 91.8941 32.1152 91.4897 31.5805C91.0854 31.0458 90.8833 30.348 90.8833 29.4872C90.8833 28.2091 91.3463 27.2113 92.2723 26.494C93.1983 25.7636 94.4047 25.3984 95.8915 25.3984C97.4044 25.3984 98.6239 25.7636 99.5499 26.494C100.476 27.2113 100.972 28.2156 101.037 29.5068H97.4175C97.3914 29.0633 97.2284 28.7177 96.9284 28.4699C96.6284 28.2091 96.2437 28.0786 95.7742 28.0786C95.3698 28.0786 95.0438 28.1895 94.796 28.4112C94.5482 28.6199 94.4243 28.9264 94.4243 29.3307C94.4243 29.7741 94.6329 30.1198 95.0503 30.3676C95.4677 30.6154 96.1198 30.8827 97.0067 31.1697C97.8935 31.4696 98.6109 31.7566 99.1586 32.0305C99.7195 32.3043 100.202 32.7021 100.606 33.2238C101.011 33.7455 101.213 34.4172 101.213 35.2389C101.213 36.0214 101.011 36.7322 100.606 37.3713C100.215 38.0104 99.6412 38.519 98.8847 38.8972C98.1283 39.2755 97.2349 39.4646 96.2045 39.4646Z" fill="#1A1A1A"></path></svg>